<?xml version="1.0" standalone="no"?>
<!DOCTYPE svg PUBLIC "-//W3C//DTD SVG 20010904//EN"
 "http://www.w3.org/TR/2001/REC-SVG-20010904/DTD/svg10.dtd">
<svg version="1.0" xmlns="http://www.w3.org/2000/svg"
 width="300.000000pt" height="259.000000pt" viewBox="0 0 300.000000 259.000000"
 preserveAspectRatio="xMidYMid meet">

<g transform="translate(0.000000,259.000000) scale(0.100000,-0.100000)"
fill="#000000" stroke="none">
<path d="M1060 2575 c0 -3 239 -487 532 -1076 320 -644 537 -1069 545 -1069
16 0 866 1707 857 1721 -3 5 -104 9 -225 9 l-219 0 -270 -541 c-149 -297 -268
-544 -265 -550 4 -5 11 -9 16 -9 6 0 130 241 276 535 l265 535 189 0 c104 0
189 -3 189 -7 0 -5 -183 -375 -406 -823 l-406 -815 -522 1045 c-358 718 -527
1046 -539 1048 -9 2 -17 1 -17 -3z"/>
<path d="M844 2133 c-70 -133 -834 -1677 -834 -1687 0 -23 25 -26 229 -26 142
0 202 3 214 13 9 6 84 150 167 319 l151 308 212 2 c181 3 212 5 212 18 0 13
-31 15 -220 15 l-220 0 -160 -317 -160 -318 -192 0 -192 0 406 817 c223 450
407 820 409 822 2 2 238 -469 525 -1048 301 -605 528 -1051 536 -1051 7 0 13
6 13 13 0 23 -1060 2147 -1071 2147 -5 0 -17 -12 -25 -27z"/>
</g>
</svg>
